<svg xmlns="http://www.w3.org/2000/svg" viewBox="0 0 799.15 216.99"><defs><style>.cls-1{fill:#f70;}.cls-2{fill:#272c34;}</style></defs><g id="Objects"><path class="cls-1" d="M797.84,148.24l-1-18.75L796,110.74l.72,1.45a170.58,170.58,0,0,0-15.84-8.4c-5.39-2.63-10.88-5-16.43-7.29-11.14-4.43-22.41-8.45-33.88-11.77s-23.07-6.14-34.75-8.43-23.46-4.1-35.27-5.4q-8.87-1-17.75-1.57c-2.74-.2-6-.37-8.9-.51s-5.79-.2-8.76-.23c-11.78-.13-23.62.4-35.46,1.31s-23.72,2.36-35.61,4-23.8,3.45-35.76,5.29-24,3.76-36,5.47-24.2,3.3-36.41,4.53-24.48,2.12-36.8,2.58-24.67.34-37-.33a331.68,331.68,0,0,1-36.81-4.05,310.64,310.64,0,0,1-36.05-8.12,295.45,295.45,0,0,1-34.64-12.41A290.85,290.85,0,0,1,232,50.37c11.33,4.41,22.77,8.42,34.33,11.86,5.78,1.7,11.6,3.24,17.42,4.73s11.69,2.73,17.59,3.8a352.63,352.63,0,0,0,35.49,5q17.84,1.52,35.71,1.47c11.92,0,23.83-.57,35.73-1.5S432,73.46,443.9,71.91s23.77-3.41,35.69-5.3l35.85-5.86c12-2,24.06-3.82,36.22-5.38q9.12-1.17,18.3-2.16c6.13-.61,12.28-1.1,18.45-1.51s12.37-.65,18.58-.77,12.43,0,18.66.24q4.65.18,9.42.53c3.2.24,5.95.45,9.25.84q9.23,1,18.4,2.44A361,361,0,0,1,699,62.59c6,1.56,11.9,3.34,17.79,5.18s11.69,4,17.44,6.24a287.48,287.48,0,0,1,33.61,15.31,202,202,0,0,1,31,20l.77.62,0,.83-.85,18.75Z" transform="translate(-0.53 0.32)"/><path class="cls-2" d="M17.6,156.57a64.55,64.55,0,0,1-7.67-12.39C8.85,142,7.87,139.74,7,137.46s-1.66-4.62-2.37-7-1.3-4.75-1.83-7.16-.95-4.85-1.29-7.3c-.2-1.22-.3-2.45-.44-3.68s-.26-2.47-.31-3.71c-.18-2.47-.18-5-.21-7.44s.1-5,.34-7.45.47-5,.77-7.42S2.39,81.4,2.9,79s1-4.88,1.69-7.28S6,66.89,6.72,64.52s1.67-4.69,2.5-7,1.89-4.6,2.83-6.91l3.15-6.77,1.89-4.06,4.68,1.81c2.23.86,5,1.74,7.58,2.47s5.32,1.43,8,2c5.41,1.18,10.86,2.2,16.37,2.92A217.77,217.77,0,0,0,87,50.78c5.56-.11,11.13-.39,16.67-.89,2.78-.22,5.55-.45,8.32-.79s5.53-.66,8.29-1.05a285.86,285.86,0,0,0,32.75-6.7c5.39-1.44,10.75-3,16.06-4.74,2.67-.82,5.3-1.75,7.94-2.68l8.05-2.81c5.39-1.91,10.77-3.83,16.33-5.64s11-3.59,16.58-5.27c11.1-3.3,22.27-6.45,33.61-9s22.73-4.93,34.25-6.72S309,1.32,320.64.56s23.33-1.08,35-.75S378.9.88,390.45,2.23s23,3.15,34.37,5.25,22.62,4.72,33.8,7.5,22.27,5.84,33.26,9.2,22,6.74,32.8,10.49,21.67,7.5,32.42,11.5c-22.39-5-44.68-10.2-67-14.91-11.19-2.27-22.35-4.59-33.55-6.61s-22.41-3.73-33.63-5.31-22.46-2.67-33.71-3.45-22.48-1.15-33.71-1.05-22.44.59-33.61,1.59-22.31,2.35-33.38,4.25c-5.54.86-11.06,2-16.58,3-5.49,1.19-11,2.29-16.48,3.66-11,2.54-21.86,5.49-32.7,8.67s-21.47,6.54-32.38,10.29L182.16,49c-2.78.93-5.56,1.82-8.38,2.62-5.61,1.69-11.28,3.18-17,4.55a296.08,296.08,0,0,1-34.63,6.18A243.16,243.16,0,0,1,87,64.11a231,231,0,0,1-35.09-3.4,174.1,174.1,0,0,1-17.26-3.89c-2.85-.79-5.68-1.69-8.5-2.66s-5.51-2-8.55-3.36l6.58-2.25-3.36,6.18c-1,2.1-2.11,4.18-3.07,6.32s-2,4.25-2.76,6.45-1.72,4.36-2.43,6.59-1.47,4.44-2.14,6.69-1.19,4.52-1.74,6.8-1,4.59-1.29,6.92-.62,4.65-.89,7-.35,4.69-.37,7,0,4.71,0,7.07.29,4.72.55,7.07.64,4.7,1.07,7a101.28,101.28,0,0,0,3.74,13.8A70.65,70.65,0,0,0,17.6,156.57Z" transform="translate(-0.53 0.32)"/></g><g id="Layer_2" data-name="Layer 2"><path class="cls-1" d="M56.93,125.46H92l16.85,73.26,17-73.26h35.29v91.21h-19.9V142.8l-17.71,73.87h-30L76.83,140.6v76.07H56.93Z" transform="translate(-0.53 0.32)"/><path class="cls-1" d="M178.05,147.8h25.64a75.73,75.73,0,0,1,12.58.92,17.28,17.28,0,0,1,9.34,4.77,17.62,17.62,0,0,1,5,10.09,89,89,0,0,1,1,14.43v38.66H209.92V203.11l-9.37,13.56h-8.29A52.52,52.52,0,0,1,177.65,215q-5.84-1.71-8.22-5.93a28,28,0,0,1-3.1-7.66,31,31,0,0,1-.73-6.49,26.78,26.78,0,0,1,3-13.34q3-5.39,7.37-7a32.3,32.3,0,0,1,11.39-1.66h22.52V170a4.82,4.82,0,0,0-1.16-2.87,5.59,5.59,0,0,0-2.73-1.34,28.77,28.77,0,0,0-5.85-.43H169.26Zm16.94,41a24.72,24.72,0,0,0-4,.24,5,5,0,0,0-2.86,2.32,5.57,5.57,0,0,0-.6,2.69,6.19,6.19,0,0,0,1.15,3.36q1.16,1.77,5.65,1.77h15.54V188.83Z" transform="translate(-0.53 0.32)"/><path class="cls-1" d="M237.88,147.8h23.94l8.91,16.73,9-16.73h24.06l-20,32.91,22.84,36H281.72l-11.24-18.32-10,18.32H235.56l21.62-35.11Z" transform="translate(-0.53 0.32)"/><path class="cls-2" d="M306.75,125.46h21.86l12.57,77.17,13.31-77.17h31.75l13.19,76.07,13.06-76.07H433l-17.33,91.21H384.16L369.88,140l-13.31,76.68h-33Z" transform="translate(-0.53 0.32)"/><path class="cls-2" d="M457.55,123.87v37.48l10.37-13.55h8.43q8.91,0,13.19,1.16a16.12,16.12,0,0,1,7.08,3.86,16.54,16.54,0,0,1,4,5.75q1.22,3.06,1.22,10.39v47.71H480.13V178a30.62,30.62,0,0,0-.48-6,7.64,7.64,0,0,0-2.08-3.91,7.15,7.15,0,0,0-3.78-2,35.14,35.14,0,0,0-6.35-.43h-9.89v51H435.81v-92.8Z" transform="translate(-0.53 0.32)"/><path class="cls-2" d="M574.15,188.58l-.24,1H530.32q2.68,6.93,6.53,8.35t12.52,1.42h23.68l-9.52,17.34H538.26q-11.12,0-16.18-2.76a21.19,21.19,0,0,1-8.06-7.6,34.66,34.66,0,0,1-4.34-11.39,66.45,66.45,0,0,1-1.34-13.3,59.48,59.48,0,0,1,.79-10.41A38.54,38.54,0,0,1,512.86,161q2.92-5.83,10.26-9.75a31.7,31.7,0,0,1,15.14-3.92h3.54a47.22,47.22,0,0,1,15,2.45,22.11,22.11,0,0,1,11.41,8.18,28.09,28.09,0,0,1,5,13.06A144.77,144.77,0,0,1,574.15,188.58Zm-26.74-23.81A7.54,7.54,0,0,0,545,164a21.25,21.25,0,0,0-3.17-.24,15.4,15.4,0,0,0-5.92,1,8.43,8.43,0,0,0-4.1,4,16.87,16.87,0,0,0-1.95,6.11h22.83a20.68,20.68,0,0,0-1.52-6.6A8.57,8.57,0,0,0,547.41,164.77Z" transform="translate(-0.53 0.32)"/><path class="cls-2" d="M645.22,188.58l-.25,1H601.38q2.68,6.93,6.53,8.35t12.52,1.42h23.69l-9.53,17.34H609.32q-11.12,0-16.18-2.76a21.19,21.19,0,0,1-8.06-7.6,34.44,34.44,0,0,1-4.33-11.39,65.74,65.74,0,0,1-1.35-13.3,59.4,59.4,0,0,1,.8-10.41A38.47,38.47,0,0,1,583.92,161q2.93-5.83,10.26-9.75a31.73,31.73,0,0,1,15.14-3.92h3.54a47.17,47.17,0,0,1,15,2.45,22.07,22.07,0,0,1,11.41,8.18,28.09,28.09,0,0,1,5,13.06A144.56,144.56,0,0,1,645.22,188.58Zm-26.74-23.81A7.61,7.61,0,0,0,616,164a21.15,21.15,0,0,0-3.17-.24,15.4,15.4,0,0,0-5.92,1,8.38,8.38,0,0,0-4.09,4,16.89,16.89,0,0,0-2,6.11h22.84a20.91,20.91,0,0,0-1.53-6.6A8.54,8.54,0,0,0,618.48,164.77Z" transform="translate(-0.53 0.32)"/><path class="cls-2" d="M674.52,123.87v92.8H652.79v-92.8Z" transform="translate(-0.53 0.32)"/><path class="cls-2" d="M748.76,147.8l-10,17.95H707.61a4.14,4.14,0,0,0-2.93,1.2,3.64,3.64,0,0,0-.73,2.28,2.93,2.93,0,0,0,.79,2.28,3.34,3.34,0,0,0,2,.84q1.17.12,7.51.12h6q11.22,0,16.79,2.26a15.69,15.69,0,0,1,8.18,7.1,24,24,0,0,1,2.62,11.57,28.6,28.6,0,0,1-.85,7,31.14,31.14,0,0,1-3.6,8q-2.76,4.6-8.92,6.43a50.69,50.69,0,0,1-14.47,1.84H684.78V199.33h32.35a26.79,26.79,0,0,0,6.23-.56,5.24,5.24,0,0,0,3.3-2.29,6.1,6.1,0,0,0,.36-2.1,4.33,4.33,0,0,0-3.48-4.14,27.18,27.18,0,0,0-5.8-.43h-8.42a42.34,42.34,0,0,1-12.88-1.71,13.81,13.81,0,0,1-8.12-6.9,25.33,25.33,0,0,1-2.81-12.27,29.8,29.8,0,0,1,.67-6.54,25.6,25.6,0,0,1,3.11-7.08,13.36,13.36,0,0,1,7.7-5.8,41.29,41.29,0,0,1,12.7-1.71h39.07Z" transform="translate(-0.53 0.32)"/></g></svg>